<?xml version="1.0" encoding="iso-8859-1"?>
<!-- Generator: Adobe Illustrator 16.0.0, SVG Export Plug-In . SVG Version: 6.00 Build 0)  -->
<!DOCTYPE svg PUBLIC "-//W3C//DTD SVG 1.1//EN" "http://www.w3.org/Graphics/SVG/1.1/DTD/svg11.dtd">
<svg version="1.1" id="Capa_1" xmlns="http://www.w3.org/2000/svg" xmlns:xlink="http://www.w3.org/1999/xlink" x="0px" y="0px"
	 width="195.442px" height="195.442px" viewBox="0 0 195.442 195.442" style="enable-background:new 0 0 195.442 195.442;"
	 xml:space="preserve">
<g>
	<g>
		<path d="M158.607,43.599c0.525-1.111-0.628-2.571-1.831-2.269C138.94,24.813,114.938,12.069,93.281,1.46
			c-0.003-0.035,0.004-0.071,0.001-0.105c-0.11-1.394-1.78-1.859-2.578-0.698c-2.444,3.557-2.184,9.644-2.419,13.793
			c-0.321,5.647-0.209,11.367,0.256,17.018c-19.645,0.044-39.372-1.38-58.995-0.934c-0.925,0.021-1.103,0.993-0.631,1.519
			c-1.872,3.772-1.828,9.215-2.06,13.285c-0.301,5.277-0.014,10.748,1.503,15.83c0.174,0.583,0.588,0.773,1.017,0.802
			c19.199,4.674,42.242,6.606,61.896,2.407c-0.565,7.555-0.091,28.325,3.495,27.887c1.01-0.124,1.474-1.116,1.161-1.864
			c0.177,0.184,0.266,0.129,0.265-0.71c0-0.138-0.029-0.275-0.034-0.413c7.479-0.406,16.722-9.779,22.461-13.772
			c13.151-9.15,26.347-19.692,38.381-30.344C157.841,45.238,158.588,44.436,158.607,43.599z M116.764,72.333
			c-5.019,3.534-10.049,7.052-15.069,10.584c-1.338,0.941-3.938,3.782-5.655,4.926c-0.037-0.334-0.05-0.67-0.083-1.005
			c-0.285-2.875-0.477-5.759-0.674-8.641c-0.307-4.479-0.06-9.861-1.171-14.405c0.11-0.027,0.228-0.042,0.338-0.07
			c1.616-0.409,1.314-3.112-0.4-2.955c-21.583,1.987-41.901,1.27-63.393-0.963c-0.642-4.83-0.652-9.604-0.285-14.469
			c0.311-4.135,1.646-8.581,1.203-12.714c18.024,2.208,40.473,6.629,58.17,2.022c0.009,0,0.017-0.006,0.027-0.006
			c0.585-0.153,1.209-0.231,1.784-0.404c1.497-0.451,1.234-2.762-0.372-2.747c-0.067,0.001-0.133-0.002-0.2-0.002
			c0.425-5.015,0.616-10.062,0.854-15.084c0.186-3.93,1.198-8.097,1.42-12.085c20.216,13.091,40.716,25.433,60.642,38.979
			C141.093,52.41,129.596,63.299,116.764,72.333z"/>
		<path d="M168.234,140.393c-0.005-1.008-0.815-1.762-1.799-1.799c-15.119-0.56-30.751-1.687-45.944-0.017
			c-0.017,0.003-0.032-0.001-0.05,0.004c-5.374,0.593-10.694,1.521-15.915,2.971c-0.071,0.021-0.081,0.079-0.141,0.106
			c0.05-0.079,0.126-0.132,0.161-0.224c1.157-2.99-0.102-7.371-0.409-10.448c-0.434-4.336-0.997-8.787-2.098-13.037
			c1.034-0.817,0.751-2.907-0.824-2.711c-0.058,0.007-0.11,0.026-0.167,0.035c-0.48-0.313-1.142-0.193-1.397,0.29
			c-9.183,1.813-16.718,9.038-24.415,13.982c-13.864,8.905-29.162,15.837-43.292,24.378c-0.115,0.07-0.126,0.174-0.195,0.262
			c-1.028,0.054-1.889,0.342-2.485,0.976c-0.19,0.202-0.129,0.476,0.081,0.629c8.19,5.974,19.708,10.326,28.722,15.467
			c12.865,7.336,26.284,20.34,40.654,24.143c0.445,0.116,0.79-0.021,1.07-0.243c0.464,0.031,0.928-0.171,1.014-0.73
			c0.781-5.039,1.118-10.109,1.597-15.181c0.252-2.661,0.859-5.971,0.635-8.927c7.854,2.506,17,1.754,24.998,1.554
			c11.831-0.295,24.192-0.508,35.913-2.158c0.915-0.129,1.129-0.854,0.939-1.539c0.172-0.179,0.272-0.432,0.43-0.626
			c0.229-0.117,0.378-0.318,0.403-0.587C170.249,160.476,168.266,147.238,168.234,140.393z M99.771,118.917
			c0.408,4.406,0.728,8.821,1.142,13.226c0.06,0.635,0.08,1.331,0.103,2.038c-2.365-4.175-5.218-8.065-6.89-12.681
			C95.971,120.55,97.841,119.66,99.771,118.917z M34.798,154.566c2.006-0.994,3.993-2.021,5.994-3.024
			c1.034,2.03,2.179,4.008,3.283,6c0.292,0.528,0.573,1.088,0.855,1.657C41.461,157.2,37.807,155.355,34.798,154.566z
			 M47.596,160.777c-0.657-1.072-1.41-2.108-2.043-3.14c-1.326-2.162-2.612-4.364-4.054-6.453c1.422-0.714,2.822-1.47,4.241-2.188
			c-0.001,0.052-0.014,0.102,0.016,0.159c3.048,5.661,6.29,11.701,10.204,16.939C54.565,165.279,51.35,163.075,47.596,160.777z
			 M58.2,167.44c-3.425-6.443-8.195-12.301-11.895-18.605c-0.027-0.045-0.068-0.052-0.103-0.077
			c1.613-0.816,3.208-1.667,4.819-2.486c3.183,9.011,8.101,17.425,13.779,25.144C62.595,170.097,60.416,168.735,58.2,167.44z
			 M75.943,178.262c-0.011-0.061,0.009-0.115-0.025-0.178c-3.143-5.763-6.377-11.429-9.37-17.295
			c-2.925-5.732-5.966-11.418-10.917-15.663c-0.388-0.332-0.943,0.204-0.567,0.567c5.058,4.876,8.347,11.007,11.266,17.322
			c2.007,4.343,3.835,9.551,6.832,13.521c-1.637-0.995-3.241-2.04-4.882-3.028c-6.18-8.844-12.378-17.581-16.606-27.577
			c2.701-1.376,5.385-2.785,8.082-4.171c4.904,13.513,11.975,27.619,20.542,39.203C78.841,180.073,77.401,179.155,75.943,178.262z
			 M82.417,182.279c0.11-0.18,0.166-0.396,0.043-0.664c-6.392-13.879-15.857-26.116-21.956-40.238
			c1.136-0.584,2.268-1.176,3.405-1.758c9.219,14.811,14.931,31.468,24.222,46.204C86.22,184.65,84.329,183.451,82.417,182.279z
			 M98.773,192.425c-2.749-1.758-5.547-3.449-8.327-5.165c0.093-0.195,0.12-0.422-0.026-0.674
			c-8.955-15.542-15.304-32.695-25.517-47.48c1.149-0.591,2.302-1.17,3.442-1.777c0.044-0.024,0.087-0.051,0.131-0.075
			c7.574,18.394,15.686,38.624,28.701,53.763c0.482,0.562,1.383-0.164,1.009-0.778c-10.599-17.444-19.975-35.112-28.734-53.538
			c1.105-0.612,2.197-1.262,3.285-1.922c7.026,15.296,13.126,35.638,25.969,46.826c0.125,0.107,0.277,0.119,0.425,0.096
			C98.994,185.275,98.843,188.849,98.773,192.425z M99.177,180.529c-10.57-14.163-17.566-30.603-25.588-46.266
			c1.281-0.791,2.553-1.609,3.822-2.438c0.568,6.562,4.241,12.73,7.393,18.357c4.379,7.816,9.378,15.374,14.288,22.867
			c0.043,0.066,0.109,0.064,0.16,0.111c0.005,1.52,0.077,3.037,0.035,4.437C99.257,178.575,99.213,179.551,99.177,180.529z
			 M100.14,166.999c-0.099,0.218-0.12,0.47-0.2,0.696c-0.052,0.002-0.104-0.002-0.156,0c-0.606,0.02-0.938,0.912-0.327,1.212
			c0.04,0.019,0.083,0.029,0.122,0.05c-0.095,0.452-0.131,0.927-0.181,1.396c-7.323-12.962-16.329-24.51-21.679-38.601
			c-0.016-0.043-0.064-0.043-0.102-0.061c1.196-0.781,2.391-1.574,3.586-2.364c2.464,7.555,5.776,14.816,9.481,21.838
			c2.391,4.53,5.567,11.572,9.973,15.359C100.435,166.625,100.242,166.773,100.14,166.999z M104.031,167.72
			c0.023-0.132-0.004-0.276-0.104-0.42c-8.571-12.314-16.634-24.23-22.138-38.36c1.003-0.662,2.012-1.313,3.02-1.966
			c6.471,13.784,13.552,28.102,22.005,40.81C105.887,167.763,104.959,167.723,104.031,167.72z M116.056,168.09
			c-0.005-0.014,0.004-0.024-0.003-0.04c-6.593-15.458-18.805-28.298-26.003-43.6c-0.193-0.411-0.772-0.052-0.6,0.351
			c6.395,15.014,15.538,30.022,25.171,43.237c-2.037-0.081-4.073-0.16-6.108-0.218c-6.377-14.252-15.574-27.542-23.108-41.233
			c2.623-1.684,5.284-3.282,8.007-4.722c1.423,5.643,4.473,11.537,7.873,16.231c0.161,1.315,0.421,2.588,1.026,3.631
			c0.372,0.641,1.033,0.686,1.563,0.409c-0.238,0.647,0.291,1.525,1.201,1.398c0.606-0.084,1.209-0.118,1.814-0.196
			c3.205,9.177,10.018,17.36,16.216,24.958C120.751,168.254,118.402,168.181,116.056,168.09z M124.987,168.305
			c-4.966-8.85-12.781-15.812-17.278-25.056c1.675-0.21,3.345-0.322,5.018-0.491c1.458,4.523,3.99,8.781,6.329,12.866
			c2.319,4.049,4.896,9.049,8.296,12.642C126.563,168.271,125.774,168.311,124.987,168.305z M129.642,168.228
			c-2.82-4.562-6.49-8.762-9.355-13.322c-2.487-3.96-4.701-8.065-6.841-12.218c1.121-0.11,2.241-0.164,3.361-0.259
			c3.983,8.335,7.878,19.381,14.837,25.767C130.977,168.219,130.31,168.213,129.642,168.228z M133.35,168.099
			c-0.014-0.032,0.003-0.061-0.018-0.095c-2.454-4.021-5.483-7.683-7.933-11.742c-2.73-4.525-5.229-9.212-7.665-13.903
			c1.141-0.092,2.279-0.139,3.418-0.215c3.168,9.115,9.155,18.204,14.855,25.744C135.124,167.958,134.227,168.044,133.35,168.099z
			 M137.431,167.777c-3.185-9.401-11.044-16.555-15.166-25.701c1.661-0.104,3.327-0.104,4.988-0.179
			c3.677,8.345,7.87,18.442,13.956,25.552C139.947,167.559,138.683,167.672,137.431,167.777z M143.419,167.256
			c-4.92-8.538-10.604-16.576-15.158-25.396c0.956-0.041,1.914-0.039,2.87-0.072c4.072,8.537,8.978,17.749,14.908,25.261
			C145.166,167.119,144.291,167.181,143.419,167.256z M147.736,166.915c-4.51-8.601-10.312-16.892-15.452-25.156
			c2.161-0.068,4.327-0.087,6.491-0.123c2.934,8.824,7.904,17.979,13.842,25.055C150.991,166.751,149.366,166.798,147.736,166.915z
			 M154.456,166.606c-4.358-8.692-10.651-15.934-14.368-24.994c1.558-0.021,3.12-0.021,4.681-0.024
			c5.295,7.989,8.387,17.296,13.968,25.038C157.315,166.583,155.889,166.577,154.456,166.606z M162.361,166.829
			c-0.525-0.048-1.061-0.057-1.59-0.089c-0.019-0.092,0.019-0.169-0.035-0.268c-4.517-8.258-8.629-17.335-14.382-24.894
			c1.535,0.003,3.077,0.048,4.615,0.076c3.284,7.776,6.192,17.514,11.767,23.924C162.602,165.995,162.515,166.415,162.361,166.829z
			 M163.555,162.786c-1.852-3.114-3.837-6.158-5.491-9.402c-1.979-3.885-3.846-7.826-5.829-11.709
			c0.717,0.018,1.432,0.01,2.149,0.035c0.107,0.004,0.515,0.006,1.023,0.01c3.377,4.836,5.788,10.445,9.027,15.371
			C164.261,159.011,163.987,160.909,163.555,162.786z M156.817,141.736c3.046,0.042,7.832,0.189,7.837,0.827
			c0.017,1.906,0.024,3.813,0.032,5.721c-1.115-1.862-2.391-3.653-3.462-5.328c-0.419-0.655-1.429-0.073-1.045,0.61
			c0.95,1.689,1.889,3.385,2.81,5.091c0.609,1.127,1.137,2.312,1.687,3.48c-0.009,0.518-0.012,1.038-0.03,1.553
			C162.246,149.557,159.566,145.488,156.817,141.736z"/>
	</g>
</g>
<g>
</g>
<g>
</g>
<g>
</g>
<g>
</g>
<g>
</g>
<g>
</g>
<g>
</g>
<g>
</g>
<g>
</g>
<g>
</g>
<g>
</g>
<g>
</g>
<g>
</g>
<g>
</g>
<g>
</g>
</svg>
