<?xml version="1.0" encoding="utf-8"?>
<!-- Generator: Adobe Illustrator 18.0.0, SVG Export Plug-In . SVG Version: 6.00 Build 0)  -->
<!DOCTYPE svg PUBLIC "-//W3C//DTD SVG 1.1//EN" "http://www.w3.org/Graphics/SVG/1.1/DTD/svg11.dtd">
<svg version="1.1" id="Calque_1" xmlns="http://www.w3.org/2000/svg" xmlns:xlink="http://www.w3.org/1999/xlink" x="0px" y="0px"
	 width="612px" height="792px" viewBox="0 0 612 792" style="enable-background:new 0 0 612 792;" xml:space="preserve">
<g>
	<g style="opacity:0.2;">
		
			
	</g>
	
		<linearGradient id="SVGID_1_" gradientUnits="userSpaceOnUse" x1="27.3692" y1="757.3329" x2="53.9964" y2="825.651" gradientTransform="matrix(6.0594 0 0 -6.0594 0 4979.9404)">
		<stop  offset="0" style="stop-color:#86BC26"/>
		<stop  offset="1" style="stop-color:#7FB927"/>
	</linearGradient>
	<path style="fill:url(#SVGID_1_);" d="M303,233.6c-68.5-68.5-180-68.5-248.4,0s-68.5,180,0,248.4l124.2,124.2L303,482
		C371.4,413.6,371.4,302.1,303,233.6z"/>
	<path style="fill:#FFFFFF;" d="M70.3,389.9c-18.2,0-32.7-14.5-32.7-32.7c0-18.2,14.5-32.7,32.7-32.7S103,339,103,357.2
		C103,375.4,88.5,389.9,70.3,389.9 M109.1,322.1c-2.4,0-4.2,1.8-4.2,4.2v7.3c-7.9-11.5-20.6-18.2-33.9-18.2
		c-23,0-41.2,18.8-41.2,41.2c0,23,18.8,41.2,41.2,41.2c13.9,0,26.1-6.7,33.9-18.2v13.9c0,2.4,1.8,4.2,4.2,4.2c2.4,0,4.2-1.8,4.2-4.2
		v-67.3C112.7,323.9,110.9,322.1,109.1,322.1z"/>
	<path style="fill:#FFFFFF;" d="M270.2,389.9c-18.2,0-32.7-14.5-32.7-32.7c0-18.2,14.5-32.7,32.7-32.7S303,339,303,357.2
		C303,375.4,288.4,389.9,270.2,389.9 M308.4,322.1c-2.4,0-4.2,1.8-4.2,4.2v7.3c-7.9-11.5-20.6-18.2-33.9-18.2
		c-23,0-41.2,18.8-41.2,41.2c0,23,18.8,41.2,41.2,41.2c13.9,0,26.1-6.7,33.9-18.2v13.9c0,2.4,1.8,4.2,4.2,4.2s4.2-1.8,4.2-4.2v-67.3
		C312.7,323.9,310.2,322.1,308.4,322.1z"/>
	<path style="fill:#FFFFFF;" d="M183,389.9c-18.2,0-32.7-14.5-32.7-32.7c0-18.2,14.5-32.7,32.7-32.7s32.7,14.5,32.7,32.7
		C215.7,375.4,201.2,389.9,183,389.9 M183,316c-13.9,0-26.1,6.7-33.9,18.2v-7.9c0-2.4-1.8-4.2-4.2-4.2c-2.4,0-4.2,1.8-4.2,4.2v122.4
		c0,2.4,1.8,4.2,4.2,4.2s4.2-1.8,4.2-4.2v-68.5c7.9,11.5,20.6,18.2,33.9,18.2c23,0,41.2-18.8,41.2-41.2
		C224.2,334.2,205.4,316,183,316z"/>
	<path style="fill:#FFFFFF;" d="M163,309.4c0-2.4-1.8-4.2-4.2-4.2h-27.9v-8.5c0-15.8,8.5-15.8,9.1-15.8h18.8c2.4,0,4.2-1.8,4.2-4.2
		c0-2.4-1.8-4.2-3.6-4.2l0,0H140c-0.6,0-17.6,0-17.6,24.2v8.5h-6.7c-2.4,0-4.2,1.8-4.2,4.2s1.8,4.2,4.2,4.2h6.7v80.6
		c0,2.4,1.8,4.2,4.2,4.2c2.4,0,4.2-1.8,4.2-4.2v-80.6h27.9C161.2,313.6,163,311.8,163,309.4"/>
</g>
</svg>
